# xmcd
#
# Track frame offsets:
# 150
# 13190
# 25115
# 38350
# 50515
# 63860
# 74230
# 88195
# 101377
# 119625
# 133035
# 152370
# 165715
#
# Disc length: 2356 seconds
#
#
# Revision: 2
# Processed by: cddbd v1.5.2PL0 Copyright (c) Steve Scherf et al.
# Submitted via: FreeRIP 2.951 
#
DISCID=a909320d
DTITLE=Duke Elington - Duke Elington
DYEAR=1900
DGENRE=
TTITLE0=Cottontail
TTITLE1=Blues For Blanton
TTITLE2=C. Jam Blues
TTITLE3=Oscalypso
TTITLE4=Flamingo
TTITLE5=Take The "A" Train
TTITLE6=Bong-up Blues
TTITLE7=Great Times
TTITLE8=In A Blue Summer Garden
TTITLE9=Jonhhy Come Lately
TTITLE10=Perdido
TTITLE11=Tony
TTITLE12=Big City Blues
EXTD=
EXTT0=
EXTT1=
EXTT2=
EXTT3=
EXTT4=
EXTT5=
EXTT6=
EXTT7=
EXTT8=
EXTT9=
EXTT10=
EXTT11=
EXTT12=
PLAYORDER=
